<svg width="74" height="16" viewBox="0 0 74 16" fill="none" xmlns="http://www.w3.org/2000/svg">
<g clip-path="url(#clip0_49_30)">
<path d="M7.66992 7.5V7.96875C7.66992 8.61328 7.58594 9.19141 7.41797 9.70312C7.25 10.2148 7.00977 10.6504 6.69727 11.0098C6.38867 11.3691 6.01758 11.6445 5.58398 11.8359C5.15039 12.0234 4.66992 12.1172 4.14258 12.1172C3.61914 12.1172 3.14062 12.0234 2.70703 11.8359C2.27734 11.6445 1.9043 11.3691 1.58789 11.0098C1.27148 10.6504 1.02539 10.2148 0.849609 9.70312C0.677734 9.19141 0.591797 8.61328 0.591797 7.96875V7.5C0.591797 6.85547 0.677734 6.2793 0.849609 5.77148C1.02148 5.25977 1.26367 4.82422 1.57617 4.46484C1.89258 4.10156 2.26562 3.82617 2.69531 3.63867C3.12891 3.44727 3.60742 3.35156 4.13086 3.35156C4.6582 3.35156 5.13867 3.44727 5.57227 3.63867C6.00586 3.82617 6.37891 4.10156 6.69141 4.46484C7.00391 4.82422 7.24414 5.25977 7.41211 5.77148C7.58398 6.2793 7.66992 6.85547 7.66992 7.5ZM6.19922 7.96875V7.48828C6.19922 7.01172 6.15234 6.5918 6.05859 6.22852C5.96875 5.86133 5.83398 5.55469 5.6543 5.30859C5.47852 5.05859 5.26172 4.87109 5.00391 4.74609C4.74609 4.61719 4.45508 4.55273 4.13086 4.55273C3.80664 4.55273 3.51758 4.61719 3.26367 4.74609C3.00977 4.87109 2.79297 5.05859 2.61328 5.30859C2.4375 5.55469 2.30273 5.86133 2.20898 6.22852C2.11523 6.5918 2.06836 7.01172 2.06836 7.48828V7.96875C2.06836 8.44531 2.11523 8.86719 2.20898 9.23438C2.30273 9.60156 2.43945 9.91211 2.61914 10.166C2.80273 10.416 3.02148 10.6055 3.27539 10.7344C3.5293 10.8594 3.81836 10.9219 4.14258 10.9219C4.4707 10.9219 4.76172 10.8594 5.01562 10.7344C5.26953 10.6055 5.48438 10.416 5.66016 10.166C5.83594 9.91211 5.96875 9.60156 6.05859 9.23438C6.15234 8.86719 6.19922 8.44531 6.19922 7.96875ZM10.4004 7.01367V12H8.98828V5.66016H10.3184L10.4004 7.01367ZM10.1484 8.5957L9.69141 8.58984C9.69531 8.14062 9.75781 7.72852 9.87891 7.35352C10.0039 6.97852 10.1758 6.65625 10.3945 6.38672C10.6172 6.11719 10.8828 5.91016 11.1914 5.76562C11.5 5.61719 11.8438 5.54297 12.2227 5.54297C12.5273 5.54297 12.8027 5.58594 13.0488 5.67188C13.2988 5.75391 13.5117 5.88867 13.6875 6.07617C13.8672 6.26367 14.0039 6.50781 14.0977 6.80859C14.1914 7.10547 14.2383 7.4707 14.2383 7.9043V12H12.8203V7.89844C12.8203 7.59375 12.7754 7.35352 12.6855 7.17773C12.5996 6.99805 12.4727 6.87109 12.3047 6.79688C12.1406 6.71875 11.9355 6.67969 11.6895 6.67969C11.4473 6.67969 11.2305 6.73047 11.0391 6.83203C10.8477 6.93359 10.6855 7.07227 10.5527 7.24805C10.4238 7.42383 10.3242 7.62695 10.2539 7.85742C10.1836 8.08789 10.1484 8.33398 10.1484 8.5957ZM17.1914 3V12H15.7734V3H17.1914ZM20.25 5.66016V12H18.832V5.66016H20.25ZM18.7383 3.99609C18.7383 3.78125 18.8086 3.60352 18.9492 3.46289C19.0938 3.31836 19.293 3.24609 19.5469 3.24609C19.7969 3.24609 19.9941 3.31836 20.1387 3.46289C20.2832 3.60352 20.3555 3.78125 20.3555 3.99609C20.3555 4.20703 20.2832 4.38281 20.1387 4.52344C19.9941 4.66406 19.7969 4.73438 19.5469 4.73438C19.293 4.73438 19.0938 4.66406 18.9492 4.52344C18.8086 4.38281 18.7383 4.20703 18.7383 3.99609ZM23.1973 7.01367V12H21.7852V5.66016H23.1152L23.1973 7.01367ZM22.9453 8.5957L22.4883 8.58984C22.4922 8.14062 22.5547 7.72852 22.6758 7.35352C22.8008 6.97852 22.9727 6.65625 23.1914 6.38672C23.4141 6.11719 23.6797 5.91016 23.9883 5.76562C24.2969 5.61719 24.6406 5.54297 25.0195 5.54297C25.3242 5.54297 25.5996 5.58594 25.8457 5.67188C26.0957 5.75391 26.3086 5.88867 26.4844 6.07617C26.6641 6.26367 26.8008 6.50781 26.8945 6.80859C26.9883 7.10547 27.0352 7.4707 27.0352 7.9043V12H25.6172V7.89844C25.6172 7.59375 25.5723 7.35352 25.4824 7.17773C25.3965 6.99805 25.2695 6.87109 25.1016 6.79688C24.9375 6.71875 24.7324 6.67969 24.4863 6.67969C24.2441 6.67969 24.0273 6.73047 23.8359 6.83203C23.6445 6.93359 23.4824 7.07227 23.3496 7.24805C23.2207 7.42383 23.1211 7.62695 23.0508 7.85742C22.9805 8.08789 22.9453 8.33398 22.9453 8.5957ZM31.2715 12.1172C30.8027 12.1172 30.3789 12.041 30 11.8887C29.625 11.7324 29.3047 11.5156 29.0391 11.2383C28.7773 10.9609 28.5762 10.6348 28.4355 10.2598C28.2949 9.88477 28.2246 9.48047 28.2246 9.04688V8.8125C28.2246 8.31641 28.2969 7.86719 28.4414 7.46484C28.5859 7.0625 28.7871 6.71875 29.0449 6.43359C29.3027 6.14453 29.6074 5.92383 29.959 5.77148C30.3105 5.61914 30.6914 5.54297 31.1016 5.54297C31.5547 5.54297 31.9512 5.61914 32.291 5.77148C32.6309 5.92383 32.9121 6.13867 33.1348 6.41602C33.3613 6.68945 33.5293 7.01562 33.6387 7.39453C33.752 7.77344 33.8086 8.19141 33.8086 8.64844V9.25195H28.9102V8.23828H32.4141V8.12695C32.4062 7.87305 32.3555 7.63477 32.2617 7.41211C32.1719 7.18945 32.0332 7.00977 31.8457 6.87305C31.6582 6.73633 31.4082 6.66797 31.0957 6.66797C30.8613 6.66797 30.6523 6.71875 30.4688 6.82031C30.2891 6.91797 30.1387 7.06055 30.0176 7.24805C29.8965 7.43555 29.8027 7.66211 29.7363 7.92773C29.6738 8.18945 29.6426 8.48438 29.6426 8.8125V9.04688C29.6426 9.32422 29.6797 9.58203 29.7539 9.82031C29.832 10.0547 29.9453 10.2598 30.0938 10.4355C30.2422 10.6113 30.4219 10.75 30.6328 10.8516C30.8438 10.9492 31.084 10.998 31.3535 10.998C31.6934 10.998 31.9961 10.9297 32.2617 10.793C32.5273 10.6562 32.7578 10.4629 32.9531 10.2129L33.6973 10.9336C33.5605 11.1328 33.3828 11.3242 33.1641 11.5078C32.9453 11.6875 32.6777 11.834 32.3613 11.9473C32.0488 12.0605 31.6855 12.1172 31.2715 12.1172ZM43.623 10.834V12H39.0938V10.834H43.623ZM39.5098 3.46875V12H38.0391V3.46875H39.5098ZM43.0312 7.03125V8.17969H39.0938V7.03125H43.0312ZM43.5938 3.46875V4.64062H39.0938V3.46875H43.5938ZM46.5938 10.8809L48.1465 5.66016H49.6113L47.4082 12H46.4941L46.5938 10.8809ZM45.4043 5.66016L46.9863 10.9043L47.0625 12H46.1484L43.9336 5.66016H45.4043ZM53.1973 12.1172C52.7285 12.1172 52.3047 12.041 51.9258 11.8887C51.5508 11.7324 51.2305 11.5156 50.9648 11.2383C50.7031 10.9609 50.502 10.6348 50.3613 10.2598C50.2207 9.88477 50.1504 9.48047 50.1504 9.04688V8.8125C50.1504 8.31641 50.2227 7.86719 50.3672 7.46484C50.5117 7.0625 50.7129 6.71875 50.9707 6.43359C51.2285 6.14453 51.5332 5.92383 51.8848 5.77148C52.2363 5.61914 52.6172 5.54297 53.0273 5.54297C53.4805 5.54297 53.877 5.61914 54.2168 5.77148C54.5566 5.92383 54.8379 6.13867 55.0605 6.41602C55.2871 6.68945 55.4551 7.01562 55.5645 7.39453C55.6777 7.77344 55.7344 8.19141 55.7344 8.64844V9.25195H50.8359V8.23828H54.3398V8.12695C54.332 7.87305 54.2812 7.63477 54.1875 7.41211C54.0977 7.18945 53.959 7.00977 53.7715 6.87305C53.584 6.73633 53.334 6.66797 53.0215 6.66797C52.7871 6.66797 52.5781 6.71875 52.3945 6.82031C52.2148 6.91797 52.0645 7.06055 51.9434 7.24805C51.8223 7.43555 51.7285 7.66211 51.6621 7.92773C51.5996 8.18945 51.5684 8.48438 51.5684 8.8125V9.04688C51.5684 9.32422 51.6055 9.58203 51.6797 9.82031C51.7578 10.0547 51.8711 10.2598 52.0195 10.4355C52.168 10.6113 52.3477 10.75 52.5586 10.8516C52.7695 10.9492 53.0098 10.998 53.2793 10.998C53.6191 10.998 53.9219 10.9297 54.1875 10.793C54.4531 10.6562 54.6836 10.4629 54.8789 10.2129L55.623 10.9336C55.4863 11.1328 55.3086 11.3242 55.0898 11.5078C54.8711 11.6875 54.6035 11.834 54.2871 11.9473C53.9746 12.0605 53.6113 12.1172 53.1973 12.1172ZM58.2363 7.01367V12H56.8242V5.66016H58.1543L58.2363 7.01367ZM57.9844 8.5957L57.5273 8.58984C57.5312 8.14062 57.5938 7.72852 57.7148 7.35352C57.8398 6.97852 58.0117 6.65625 58.2305 6.38672C58.4531 6.11719 58.7188 5.91016 59.0273 5.76562C59.3359 5.61719 59.6797 5.54297 60.0586 5.54297C60.3633 5.54297 60.6387 5.58594 60.8848 5.67188C61.1348 5.75391 61.3477 5.88867 61.5234 6.07617C61.7031 6.26367 61.8398 6.50781 61.9336 6.80859C62.0273 7.10547 62.0742 7.4707 62.0742 7.9043V12H60.6562V7.89844C60.6562 7.59375 60.6113 7.35352 60.5215 7.17773C60.4355 6.99805 60.3086 6.87109 60.1406 6.79688C59.9766 6.71875 59.7715 6.67969 59.5254 6.67969C59.2832 6.67969 59.0664 6.73047 58.875 6.83203C58.6836 6.93359 58.5215 7.07227 58.3887 7.24805C58.2598 7.42383 58.1602 7.62695 58.0898 7.85742C58.0195 8.08789 57.9844 8.33398 57.9844 8.5957ZM66.4219 5.66016V6.69141H62.8477V5.66016H66.4219ZM63.8789 4.10742H65.291V10.248C65.291 10.4434 65.3184 10.5938 65.373 10.6992C65.4316 10.8008 65.5117 10.8691 65.6133 10.9043C65.7148 10.9395 65.834 10.957 65.9707 10.957C66.0684 10.957 66.1621 10.9512 66.252 10.9395C66.3418 10.9277 66.4141 10.916 66.4688 10.9043L66.4746 11.9824C66.3574 12.0176 66.2207 12.0488 66.0645 12.0762C65.9121 12.1035 65.7363 12.1172 65.5371 12.1172C65.2129 12.1172 64.9258 12.0605 64.6758 11.9473C64.4258 11.8301 64.2305 11.6406 64.0898 11.3789C63.9492 11.1172 63.8789 10.7695 63.8789 10.3359V4.10742Z" fill="#707070"/>
</g>
<defs>
<clipPath id="clip0_49_30">
<rect width="73.22" height="16" fill="white"/>
</clipPath>
</defs>
</svg>
